name rise44.8762peak52.3436fall86.788.mot
datacolumns 19
datarows 17
range 3.40998900000000 3.43665500000000
endheader
time	ground_force1_vx	ground_force1_vy	ground_force1_vz	ground_force1_px	ground_force1_py	ground_force1_pz	ground_force2_vx	ground_force2_vy	ground_force2_vz	ground_force2_px	ground_force2_py	ground_force2_pz	ground_torque1_x	ground_torque1_y	ground_torque1_z	ground_torque2_x	ground_torque2_y	ground_torque2_z	
3.40998900000000	-5.34236300000000	42.44025000000000	-8.04000100000000	0.26912200000000	0.00000000000000	0.08420500000000	-45.05279800000000	816.40152699999999	-57.01366900000000	0.09948900000000	0.00000000000000	-0.10873800000000	0.00000000000000	-4.55961700000000	0.00000000000000	0.00000000000000	-19.02315300000000	0.00000000000000	
3.41165600000000	-5.83797800000000	49.74462900000000	-9.07043000000000	0.27452400000000	0.00000000000000	0.08464300000000	-45.30967000000000	814.25106200000005	-56.94062800000000	0.09892400000000	0.00000000000000	-0.10873000000000	0.00000000000000	-5.21513500000000	0.00000000000000	0.00000000000000	-18.96724000000000	0.00000000000000	
3.41333300000000	-6.22542800000000	57.13274000000000	-10.01729700000000	0.27942400000000	0.00000000000000	0.08503200000000	-45.56767300000000	811.96671100000003	-56.84184300000000	0.09837300000000	0.00000000000000	-0.10871700000000	0.00000000000000	-5.83590500000000	0.00000000000000	0.00000000000000	-18.90927500000000	0.00000000000000	
3.41498700000000	-6.48952500000000	64.50557400000000	-10.85934700000000	0.28390800000000	0.00000000000000	0.08538200000000	-45.82710300000000	809.54759300000001	-56.71675400000000	0.09783600000000	0.00000000000000	-0.10869900000000	0.00000000000000	-6.40835800000000	0.00000000000000	0.00000000000000	-18.84936000000000	0.00000000000000	
3.41664900000000	-6.62111800000000	71.78695900000000	-11.58225500000000	0.28803900000000	0.00000000000000	0.08569800000000	-46.08823100000000	806.99283200000002	-56.56484000000000	0.09731500000000	0.00000000000000	-0.10867500000000	0.00000000000000	-6.92275200000000	0.00000000000000	0.00000000000000	-18.78759800000000	0.00000000000000	
3.41832000000000	-6.61700500000000	78.92590700000000	-12.17875100000000	0.29187200000000	0.00000000000000	0.08598600000000	-46.35130100000000	804.30154900000002	-56.38561300000000	0.09680900000000	0.00000000000000	-0.10864600000000	0.00000000000000	-7.37337600000000	0.00000000000000	0.00000000000000	-18.72408500000000	0.00000000000000	
3.41999000000000	-6.47937600000000	85.89649400000000	-12.64814800000000	0.29544800000000	0.00000000000000	0.08625000000000	-46.61652900000000	801.47286799999995	-56.17862500000000	0.09631900000000	0.00000000000000	-0.10861100000000	0.00000000000000	-7.75839000000000	0.00000000000000	0.00000000000000	-18.65891900000000	0.00000000000000	
3.42165000000000	-6.21490900000000	92.69570299999999	-12.99541400000000	0.29880100000000	0.00000000000000	0.08649400000000	-46.88410200000000	798.50590999999997	-55.94346800000000	0.09584500000000	0.00000000000000	-0.10857000000000	0.00000000000000	-8.07936500000000	0.00000000000000	0.00000000000000	-18.59219100000000	0.00000000000000	
3.42331600000000	-5.83366300000000	99.33975599999999	-13.22994000000000	0.30196000000000	0.00000000000000	0.08672000000000	-47.15417100000000	795.39979500000004	-55.67977500000000	0.09538800000000	0.00000000000000	-0.10852300000000	0.00000000000000	-8.34063800000000	0.00000000000000	0.00000000000000	-18.52398900000000	0.00000000000000	
3.42499000000000	-5.34788300000000	105.85951300000001	-13.36416000000000	0.30494700000000	0.00000000000000	0.08693200000000	-47.42685300000000	792.15364199999999	-55.38722200000000	0.09494800000000	0.00000000000000	-0.10846900000000	0.00000000000000	-8.54853200000000	0.00000000000000	0.00000000000000	-18.45439600000000	0.00000000000000	
3.42664900000000	-4.77084200000000	112.29546700000000	-13.41216100000000	0.30778100000000	0.00000000000000	0.08713000000000	-47.70222600000000	788.76656900000000	-55.06553100000000	0.09452500000000	0.00000000000000	-0.10840900000000	0.00000000000000	-8.71056000000000	0.00000000000000	0.00000000000000	-18.38348800000000	0.00000000000000	
3.42831800000000	-4.11579500000000	118.69282800000001	-13.38840600000000	0.31047800000000	0.00000000000000	0.08731700000000	-47.98032800000000	785.23769600000003	-54.71446900000000	0.09412000000000	0.00000000000000	-0.10834300000000	0.00000000000000	-8.83466500000000	0.00000000000000	0.00000000000000	-18.31133700000000	0.00000000000000	
3.42998500000000	-3.39512700000000	125.09706700000000	-13.30664000000000	0.31305000000000	0.00000000000000	0.08749400000000	-48.26115400000000	781.56614400000001	-54.33385200000000	0.09373300000000	0.00000000000000	-0.10827000000000	0.00000000000000	-8.92855100000000	0.00000000000000	0.00000000000000	-18.23800700000000	0.00000000000000	
3.43165400000000	-2.61970700000000	131.55018899999999	-13.17904100000000	0.31551000000000	0.00000000000000	0.08766200000000	-48.54465400000000	777.75103600000000	-53.92354700000000	0.09336300000000	0.00000000000000	-0.10819000000000	0.00000000000000	-8.99915000000000	0.00000000000000	0.00000000000000	-18.16355300000000	0.00000000000000	
3.43332300000000	-1.79848300000000	138.08790300000001	-13.01564700000000	0.31786500000000	0.00000000000000	0.08782300000000	-48.83073100000000	773.79150500000003	-53.48347000000000	0.09301100000000	0.00000000000000	-0.10810300000000	0.00000000000000	-9.05224000000000	0.00000000000000	0.00000000000000	-18.08802500000000	0.00000000000000	
3.43498700000000	-0.93829300000000	144.73774200000000	-12.82403100000000	0.32012400000000	0.00000000000000	0.08797600000000	-49.11924000000000	769.68669000000000	-53.01359200000000	0.09267600000000	0.00000000000000	-0.10801000000000	0.00000000000000	-9.09221500000000	0.00000000000000	0.00000000000000	-18.01146200000000	0.00000000000000	
3.43665500000000	-0.04386900000000	151.51811000000001	-12.60923300000000	0.32229300000000	0.00000000000000	0.08812500000000	-49.40998200000000	765.43574300000000	-52.51393700000000	0.09236000000000	0.00000000000000	-0.10790900000000	0.00000000000000	-9.12200200000000	0.00000000000000	0.00000000000000	-17.93389600000000	0.00000000000000	
